{
    "streams": [
        {
            "index": 0,
            "codec_name": "h264",
            "codec_long_name": "H.264 / AVC / MPEG-4 AVC / MPEG-4 part 10",
            "profile": "Main",
            "codec_type": "video",
            "codec_tag_string": "avc1",
            "codec_tag": "0x31637661",
            "mime_codec_string": "avc1.4d0033",
            "width": 2560,
            "height": 1440,
            "coded_width": 2560,
            "coded_height": 1440,
            "has_b_frames": 0,
            "pix_fmt": "yuv420p",
            "level": 51,
            "color_range": "tv",
            "color_space": "bt709",
            "color_transfer": "bt709",
            "color_primaries": "bt709",
            "chroma_location": "left",
            "field_order": "progressive",
            "refs": 1,
            "is_avc": "true",
            "nal_length_size": "4",
            "id": "0x1",
            "r_frame_rate": "30000/1001",
            "avg_frame_rate": "30000/1001",
            "time_base": "1/30000",
            "start_pts": 0,
            "start_time": "0.000000",
            "duration_ts": 1801800,
            "duration": "60.060000",
            "bit_rate": "19178768",
            "bits_per_raw_sample": "8",
            "nb_frames": "1800",
            "extradata_size": 61,
            "disposition": {
                "default": 1,
                "dub": 0,
                "original": 0,
                "comment": 0,
                "lyrics": 0,
                "karaoke": 0,
                "forced": 0,
                "hearing_impaired": 0,
                "visual_impaired": 0,
                "clean_effects": 0,
                "attached_pic": 0,
                "timed_thumbnails": 0,
                "non_diegetic": 0,
                "captions": 0,
                "descriptions": 0,
                "metadata": 0,
                "dependent": 0,
                "still_image": 0,
                "multilayer": 0
            },
            "tags": {
                "language": "eng",
                "handler_name": "\rAmbarella AVC",
                "encoder": "Ambarella AVC encoder"
            }
        },
        {
            "index": 1,
            "codec_name": "aac",
            "codec_long_name": "AAC (Advanced Audio Coding)",
            "profile": "LC",
            "codec_type": "audio",
            "codec_tag_string": "mp4a",
            "codec_tag": "0x6134706d",
            "mime_codec_string": "mp4a.40.2",
            "sample_fmt": "fltp",
            "sample_rate": "48000",
            "channels": 1,
            "channel_layout": "mono",
            "bits_per_sample": 0,
            "initial_padding": 0,
            "id": "0x2",
            "r_frame_rate": "0/0",
            "avg_frame_rate": "0/0",
            "time_base": "1/48000",
            "start_pts": 672,
            "start_time": "0.014000",
            "duration_ts": 2881536,
            "duration": "60.032000",
            "bit_rate": "128000",
            "nb_frames": "2814",
            "extradata_size": 5,
            "disposition": {
                "default": 1,
                "dub": 0,
                "original": 0,
                "comment": 0,
                "lyrics": 0,
                "karaoke": 0,
                "forced": 0,
                "hearing_impaired": 0,
                "visual_impaired": 0,
                "clean_effects": 0,
                "attached_pic": 0,
                "timed_thumbnails": 0,
                "non_diegetic": 0,
                "captions": 0,
                "descriptions": 0,
                "metadata": 0,
                "dependent": 0,
                "still_image": 0,
                "multilayer": 0
            },
            "tags": {
                "language": "eng",
                "handler_name": "\rAmbarella AAC"
            }
        },
        {
            "index": 2,
            "codec_name": "mov_text",
            "codec_long_name": "MOV text",
            "codec_type": "subtitle",
            "codec_tag_string": "tx3g",
            "codec_tag": "0x67337874",
            "id": "0x3",
            "r_frame_rate": "0/0",
            "avg_frame_rate": "0/0",
            "time_base": "1/1000000",
            "start_pts": 0,
            "start_time": "0.000000",
            "duration_ts": 1966000,
            "duration": "1.966000",
            "bit_rate": "33554",
            "nb_frames": "62",
            "extradata_size": 68,
            "disposition": {
                "default": 1,
                "dub": 0,
                "original": 0,
                "comment": 0,
                "lyrics": 0,
                "karaoke": 0,
                "forced": 0,
                "hearing_impaired": 0,
                "visual_impaired": 0,
                "clean_effects": 0,
                "attached_pic": 0,
                "timed_thumbnails": 0,
                "non_diegetic": 0,
                "captions": 0,
                "descriptions": 0,
                "metadata": 0,
                "dependent": 0,
                "still_image": 0,
                "multilayer": 0
            },
            "tags": {
                "language": "eng",
                "handler_name": "SubtitleHandler",
                "name": "GPS Track"
            }
        }
    ]
}
